# xmcd CD database file
#
# Track frame offsets:
#	150
#	17750
#	35855
#	57082
#	69265
#	81881
#	93615
#	106188
#	121949
#
# Disc length: 1855 seconds
#
# Revision: 1
# Processed by: cddbd v1.5.2PL0 Copyright (c) Steve Scherf et al.
# Submitted via: CDex 1.83
#
DISCID=6f073d09
DTITLE=Rory Block - Rory Block
DYEAR=1975
DGENRE=Blues
TTITLE0=Lovin'Of Your Life (Rory Block)
TTITLE1=Let Bygones Be Bygones (Rory Block)
TTITLE2=What Do You Do Wih A Memory (Rory Block)
TTITLE3=Spiritual (Rory Block)
TTITLE4=I Love My Car(Rory Block)
TTITLE5=Nimble Fingers (Rory Block)
TTITLE6=A Million Broken Hearts (Rory Block)
TTITLE7=Thank The Lord I'm Alive (Rory Block)
TTITLE8=I Made It All By Myself
EXTD=YEAR: 1975
EXTT0=
EXTT1=
EXTT2=
EXTT3=
EXTT4=
EXTT5=
EXTT6=
EXTT7=
EXTT8=
PLAYORDER=
